<svg width="72" height="72" viewBox="0 0 72 72" fill="none" xmlns="http://www.w3.org/2000/svg">
<path d="M49.8703 9.01186L42.6747 9C34.5906 9 29.3663 14.5059 29.3663 23.0278V29.4955H22.1314C21.5063 29.4955 21 30.0162 21 30.6584V40.0294C21 40.6716 21.5068 41.1917 22.1314 41.1917H29.3663V64.8377C29.3663 65.4799 29.8726 66 30.4978 66H39.9373C40.5624 66 41.0687 65.4794 41.0687 64.8377V41.1917H49.528C50.1532 41.1917 50.6594 40.6716 50.6594 40.0294L50.6629 30.6584C50.6629 30.35 50.5434 30.0547 50.3315 29.8365C50.1197 29.6183 49.831 29.4955 49.5309 29.4955H41.0687V24.0127C41.0687 21.3775 41.68 20.0397 45.0218 20.0397L49.8691 20.0379C50.4937 20.0379 51 19.5173 51 18.8757V10.1741C51 9.5331 50.4943 9.01305 49.8703 9.01186Z" fill="white"/>
</svg>
