<svg width="376" height="150" viewBox="0 0 376 150" fill="none" xmlns="http://www.w3.org/2000/svg">
<path d="M85.9703 55.481L86.0643 56.531C86.3463 59.6623 88.7339 60.7685 91.3659 58.9685L92.2495 58.3685C94.9003 56.5685 99.2055 53.6248 101.856 51.8248L102.74 51.2248C105.372 49.4248 105.146 46.856 102.232 45.5248L101.273 45.0748C98.3595 43.7435 93.5843 41.5498 90.6703 40.2186L89.7115 39.7873C88.9783 39.4498 88.3015 39.2998 87.6999 39.2998H87.6623C85.8575 39.2998 84.6919 40.7248 84.8987 43.0686L84.9927 44.0998C85.2559 47.2123 85.6883 52.3498 85.9703 55.481Z" fill="#F05B5C"/>
<path d="M60.9118 92.9812L61.0058 94.0125C61.269 97.1437 63.6754 98.2312 66.3074 96.4312L67.1722 95.8312C69.823 94.0312 74.147 91.0875 76.779 89.2875L77.6438 88.6875C80.2946 86.8875 80.0502 84.3188 77.155 82.9875L76.1774 82.5375C73.2634 81.2063 68.4882 79.0125 65.593 77.6813L64.6342 77.25C61.7202 75.9188 59.5394 77.3813 59.8214 80.5125L59.9154 81.5438C60.1974 84.7312 60.6298 89.85 60.9118 92.9812Z" fill="#F05B5C"/>
<path d="M106.578 94.781L106.672 95.8123C106.935 98.9435 109.341 100.031 111.973 98.2498L112.857 97.6498C115.489 95.8498 119.813 92.906 122.464 91.106L123.329 90.506C125.979 88.706 125.754 86.1373 122.84 84.806L121.881 84.356C118.967 83.0248 114.192 80.8311 111.278 79.4998L110.3 79.0498C107.386 77.7186 105.243 79.1811 105.506 82.3123L105.6 83.3623C105.845 86.5123 106.296 91.631 106.578 94.781Z" fill="#F05B5C"/>
<path d="M61.3056 65.6436C64.2196 66.9749 69.0136 69.1686 71.9088 70.4999L72.8864 70.9499C75.8004 72.2811 77.9624 70.8186 77.6804 67.6874L77.5864 66.6374C77.3232 63.5061 76.872 58.3686 76.59 55.2374L76.496 54.2061C76.2328 51.0749 73.8452 49.9686 71.1944 51.7686L70.3296 52.3686C67.6788 54.1686 63.3548 57.1124 60.7228 58.9124L59.8392 59.5124C58.73 60.2624 58.1284 61.1624 58.0156 62.0249V62.6249C58.1472 63.6186 58.9368 64.5561 60.3468 65.2124L61.3056 65.6436Z" fill="#F9BB40"/>
<path d="M106.971 67.4252C109.885 68.7565 114.66 70.9502 117.574 72.2815L118.533 72.7315C121.447 74.0627 123.609 72.6002 123.327 69.4502L123.233 68.419C122.951 65.2877 122.518 60.1502 122.236 57.019L122.142 55.969C121.879 52.8377 119.491 51.7315 116.841 53.5502L115.976 54.1315C113.325 55.9315 109.001 58.8752 106.369 60.6752L105.485 61.2752C102.853 63.0752 103.079 65.644 105.974 66.9752L106.971 67.4252Z" fill="#F9BB40"/>
<path d="M81.9101 104.924C84.8241 106.256 89.5993 108.449 92.5133 109.781L93.4721 110.231C96.3861 111.562 98.5481 110.099 98.2849 106.968L98.1909 105.937C97.9277 102.806 97.4765 97.6681 97.1945 94.5369L97.1005 93.4869C96.8185 90.3556 94.4309 89.2681 91.7989 91.0494L90.9153 91.6494C88.2645 93.4494 83.9593 96.3931 81.3085 98.1931L80.4249 98.7931C77.7929 100.593 78.0185 103.162 80.9325 104.493L81.9101 104.924Z" fill="#F9BB40"/>
<path d="M211.2 80.6248C211.2 76.7061 209.94 73.4061 207.44 70.7623C204.939 68.1186 201.743 66.7686 197.889 66.7686C193.81 66.7686 190.482 68.0811 187.888 70.7248C185.293 73.3686 183.996 76.6686 183.996 80.6248C183.996 84.6186 185.312 87.9185 187.944 90.5435C190.576 93.1685 194.073 94.481 198.416 94.481C203.473 94.481 207.289 92.606 209.884 88.856L204.413 85.7061C203.078 87.4498 201.123 88.3311 198.51 88.3311C194.468 88.3311 192.005 86.681 191.084 83.3998H210.936C211.106 82.4248 211.2 81.5061 211.2 80.6248ZM190.99 78.1498C191.384 76.4623 192.174 75.1686 193.358 74.2311C194.543 73.3123 196.066 72.8436 197.889 72.8436C199.431 72.8436 200.803 73.2748 202.025 74.1561C203.228 75.0373 204.037 76.3685 204.413 78.1498H190.99V78.1498Z" fill="#212529"/>
<path d="M179.558 67.35C179.558 64.3313 178.486 61.8563 176.324 59.925C174.162 57.9938 171.511 57 168.353 57H153.82V93.75H169.462C172.696 93.75 175.403 92.7562 177.621 90.75C179.84 88.7625 180.93 86.1938 180.93 83.0813C180.93 79.3313 179.313 76.5375 176.08 74.6812C178.411 72.8437 179.558 70.3875 179.558 67.35ZM161.077 63.7688H168.334C169.5 63.7688 170.44 64.1625 171.173 64.9312C171.906 65.7 172.282 66.6563 172.282 67.8188C172.282 68.9813 171.906 69.9375 171.154 70.7063C170.402 71.475 169.462 71.8687 168.334 71.8687H161.077V63.7688ZM172.508 85.7437C171.699 86.5687 170.684 86.9812 169.462 86.9812H161.096V78.3188H169.462C170.684 78.3188 171.699 78.7312 172.508 79.5562C173.316 80.3812 173.711 81.3938 173.711 82.6313C173.711 83.8875 173.316 84.9187 172.508 85.7437Z" fill="#212529"/>
<path d="M262.259 67.5H255.473V93.75H262.259V67.5Z" fill="#212529"/>
<path d="M322.383 80.6248C322.383 76.7061 321.123 73.4061 318.623 70.7623C316.122 68.1186 312.926 66.7686 309.072 66.7686C304.993 66.7686 301.665 68.0811 299.071 70.7248C296.476 73.3686 295.16 76.6686 295.16 80.6248C295.16 84.6186 296.476 87.9185 299.108 90.5435C301.74 93.1685 305.237 94.481 309.58 94.481C314.637 94.481 318.453 92.606 321.048 88.856L315.577 85.7061C314.242 87.4498 312.287 88.3311 309.674 88.3311C305.632 88.3311 303.169 86.681 302.248 83.3998H322.101C322.289 82.4248 322.383 81.5061 322.383 80.6248ZM302.154 78.1498C302.549 76.4623 303.338 75.1686 304.523 74.2311C305.707 73.3123 307.23 72.8436 309.053 72.8436C310.595 72.8436 311.967 73.2748 313.189 74.1561C314.393 75.0373 315.201 76.3685 315.577 78.1498H302.154V78.1498Z" fill="#212529"/>
<path d="M293.261 67.5H285.798L279.368 85.875L272.995 67.5H265.531L275.533 93.75H283.26L293.261 67.5Z" fill="#212529"/>
<path d="M230.355 57V93.75H251.675V86.8125H237.631V57H230.355Z" fill="#212529"/>
<path d="M223.043 93.1125C223.927 92.2312 224.359 91.1812 224.359 89.9625C224.359 88.7437 223.927 87.6937 223.043 86.8125C222.159 85.9312 221.107 85.5 219.885 85.5C218.663 85.5 217.61 85.9312 216.726 86.8125C215.843 87.6937 215.41 88.7437 215.41 89.9625C215.41 91.1812 215.843 92.2312 216.726 93.1125C217.61 93.9937 218.663 94.425 219.885 94.425C221.107 94.425 222.159 93.9937 223.043 93.1125Z" fill="#212529"/>
<path d="M261.809 57.2621C260.982 56.4184 259.985 56.0059 258.838 56.0059C257.71 56.0059 256.733 56.4184 255.924 57.2621C255.097 58.1059 254.684 59.0809 254.684 60.2059C254.684 61.3309 255.097 62.3059 255.924 63.1121C256.752 63.9184 257.729 64.3496 258.838 64.3496C260.004 64.3496 260.982 63.9371 261.809 63.1121C262.636 62.2871 263.05 61.3121 263.05 60.2059C263.05 59.0809 262.636 58.1059 261.809 57.2621Z" fill="#212529"/>
</svg>
